<svg id="Capa_1" enable-background="new 0 0 512.013 512.013" height="512" viewBox="0 0 512.013 512.013" width="512" xmlns="http://www.w3.org/2000/svg"><g><path d="m256.007 0-20 212.083 20 299.93 149.965-149.965c40.058-40.057 62.118-93.316 62.118-149.965 0-116.943-95.141-212.083-212.083-212.083z" fill="#ff4a4a"/><path d="m43.924 212.083c0 56.649 22.061 109.908 62.118 149.965l149.965 149.965v-512.013c-116.943 0-212.083 95.14-212.083 212.083z" fill="#ff7c48"/><path d="m256.007 60-20 152.083 20 152.083c83.859 0 152.083-68.224 152.083-152.083s-68.225-152.083-152.083-152.083z" fill="#e50058"/><path d="m103.924 212.083c0 83.858 68.224 152.083 152.083 152.083v-304.166c-83.859 0-152.083 68.224-152.083 152.083z" fill="#ff4a4a"/><path d="m256.007 90-20 122.083 20 122.083c67.317 0 122.083-54.766 122.083-122.083s-54.767-122.083-122.083-122.083z" fill="#ece6f2"/><path d="m133.924 212.083c0 67.316 54.766 122.083 122.083 122.083v-244.166c-67.317 0-122.083 54.766-122.083 122.083z" fill="#fff5f5"/><path d="m309.166 176.509c-4.48-9.016-10.649-18.035-18.335-26.808-12.798-14.608-25.633-23.732-26.173-24.114l-8.651-6.107-20 92.603 20 92.603 8.651-6.107c.54-.381 13.375-9.506 26.173-24.114 7.686-8.772 13.855-17.792 18.335-26.808 5.921-11.916 8.924-23.884 8.924-35.574s-3.003-23.658-8.924-35.574z" fill="#24b3b3"/><path d="m247.356 125.587c-.54.381-13.375 9.506-26.173 24.114-7.686 8.773-13.855 17.792-18.335 26.808-5.921 11.916-8.924 23.884-8.924 35.574s3.002 23.658 8.924 35.574c4.48 9.016 10.649 18.035 18.335 26.808 12.798 14.608 25.633 23.733 26.173 24.114l8.651 6.107v-185.206z" fill="#2ee6a8"/></g></svg>